<mxfile host="app.diagrams.net" modified="2022-03-05T10:58:01.900Z" agent="5.0 (Windows NT 10.0; WOW64) AppleWebKit/537.36 (KHTML, like Gecko) Chrome/97.0.4692.71 Safari/537.36" etag="i-FfuvzPl5jZNH5BBoEx" version="16.5.3" type="github">
  <diagram id="gnJ807dPXjQ8ZZGXrgEX" name="Page-1">
    <mxGraphModel dx="1221" dy="644" grid="1" gridSize="10" guides="1" tooltips="1" connect="1" arrows="1" fold="1" page="1" pageScale="1" pageWidth="827" pageHeight="1169" math="0" shadow="0">
      <root>
        <mxCell id="0" />
        <mxCell id="1" parent="0" />
        <mxCell id="j0N_L9nw0FPW9un53sPI-20" value="" style="edgeStyle=orthogonalEdgeStyle;rounded=0;orthogonalLoop=1;jettySize=auto;html=1;" parent="1" source="j0N_L9nw0FPW9un53sPI-3" target="j0N_L9nw0FPW9un53sPI-8" edge="1">
          <mxGeometry relative="1" as="geometry" />
        </mxCell>
        <mxCell id="j0N_L9nw0FPW9un53sPI-49" style="edgeStyle=orthogonalEdgeStyle;rounded=0;orthogonalLoop=1;jettySize=auto;html=1;" parent="1" source="j0N_L9nw0FPW9un53sPI-3" target="j0N_L9nw0FPW9un53sPI-46" edge="1">
          <mxGeometry relative="1" as="geometry" />
        </mxCell>
        <mxCell id="j0N_L9nw0FPW9un53sPI-56" value="Отмена" style="edgeLabel;html=1;align=center;verticalAlign=middle;resizable=0;points=[];" parent="j0N_L9nw0FPW9un53sPI-49" vertex="1" connectable="0">
          <mxGeometry x="-0.5172" y="1" relative="1" as="geometry">
            <mxPoint x="25" y="-9" as="offset" />
          </mxGeometry>
        </mxCell>
        <mxCell id="j0N_L9nw0FPW9un53sPI-57" value="" style="edgeStyle=orthogonalEdgeStyle;rounded=0;orthogonalLoop=1;jettySize=auto;html=1;" parent="1" source="j0N_L9nw0FPW9un53sPI-3" target="j0N_L9nw0FPW9un53sPI-46" edge="1">
          <mxGeometry relative="1" as="geometry" />
        </mxCell>
        <mxCell id="j0N_L9nw0FPW9un53sPI-3" value="Ввод даты / по дефолту текущий день" style="rounded=0;whiteSpace=wrap;html=1;" parent="1" vertex="1">
          <mxGeometry x="360" y="40" width="120" height="60" as="geometry" />
        </mxCell>
        <mxCell id="j0N_L9nw0FPW9un53sPI-16" value="" style="edgeStyle=orthogonalEdgeStyle;rounded=0;orthogonalLoop=1;jettySize=auto;html=1;" parent="1" source="j0N_L9nw0FPW9un53sPI-4" target="j0N_L9nw0FPW9un53sPI-15" edge="1">
          <mxGeometry relative="1" as="geometry" />
        </mxCell>
        <mxCell id="j0N_L9nw0FPW9un53sPI-50" style="edgeStyle=orthogonalEdgeStyle;rounded=0;orthogonalLoop=1;jettySize=auto;html=1;entryX=0;entryY=0.5;entryDx=0;entryDy=0;exitX=0;exitY=0.25;exitDx=0;exitDy=0;" parent="1" source="j0N_L9nw0FPW9un53sPI-4" target="j0N_L9nw0FPW9un53sPI-3" edge="1">
          <mxGeometry relative="1" as="geometry">
            <mxPoint x="720" y="410" as="targetPoint" />
            <Array as="points">
              <mxPoint x="170" y="265" />
              <mxPoint x="170" y="70" />
            </Array>
          </mxGeometry>
        </mxCell>
        <mxCell id="j0N_L9nw0FPW9un53sPI-55" value="Отмена" style="edgeLabel;html=1;align=center;verticalAlign=middle;resizable=0;points=[];" parent="j0N_L9nw0FPW9un53sPI-50" vertex="1" connectable="0">
          <mxGeometry x="-0.2523" y="-1" relative="1" as="geometry">
            <mxPoint x="49" y="21" as="offset" />
          </mxGeometry>
        </mxCell>
        <mxCell id="j0N_L9nw0FPW9un53sPI-4" value="Выбор категории рабочего времени" style="rounded=0;whiteSpace=wrap;html=1;" parent="1" vertex="1">
          <mxGeometry x="360" y="250" width="120" height="60" as="geometry" />
        </mxCell>
        <mxCell id="j0N_L9nw0FPW9un53sPI-21" value="" style="edgeStyle=orthogonalEdgeStyle;rounded=0;orthogonalLoop=1;jettySize=auto;html=1;" parent="1" source="j0N_L9nw0FPW9un53sPI-8" target="j0N_L9nw0FPW9un53sPI-4" edge="1">
          <mxGeometry relative="1" as="geometry" />
        </mxCell>
        <mxCell id="j0N_L9nw0FPW9un53sPI-22" value="валидные данные" style="edgeLabel;html=1;align=center;verticalAlign=middle;resizable=0;points=[];" parent="j0N_L9nw0FPW9un53sPI-21" vertex="1" connectable="0">
          <mxGeometry x="-0.1733" relative="1" as="geometry">
            <mxPoint as="offset" />
          </mxGeometry>
        </mxCell>
        <mxCell id="j0N_L9nw0FPW9un53sPI-27" style="edgeStyle=orthogonalEdgeStyle;rounded=0;orthogonalLoop=1;jettySize=auto;html=1;entryX=1;entryY=0.75;entryDx=0;entryDy=0;" parent="1" source="j0N_L9nw0FPW9un53sPI-8" target="j0N_L9nw0FPW9un53sPI-3" edge="1">
          <mxGeometry relative="1" as="geometry">
            <Array as="points">
              <mxPoint x="520" y="170" />
              <mxPoint x="520" y="85" />
            </Array>
          </mxGeometry>
        </mxCell>
        <mxCell id="j0N_L9nw0FPW9un53sPI-28" value="не валидные - исправить" style="edgeLabel;html=1;align=center;verticalAlign=middle;resizable=0;points=[];" parent="j0N_L9nw0FPW9un53sPI-27" vertex="1" connectable="0">
          <mxGeometry x="-0.2216" y="-3" relative="1" as="geometry">
            <mxPoint x="-3" y="-23" as="offset" />
          </mxGeometry>
        </mxCell>
        <mxCell id="j0N_L9nw0FPW9un53sPI-8" value="&lt;span&gt;Валидация на сервере&lt;/span&gt;" style="rhombus;whiteSpace=wrap;html=1;rounded=0;" parent="1" vertex="1">
          <mxGeometry x="365" y="130" width="110" height="80" as="geometry" />
        </mxCell>
        <mxCell id="j0N_L9nw0FPW9un53sPI-26" value="" style="edgeStyle=orthogonalEdgeStyle;rounded=0;orthogonalLoop=1;jettySize=auto;html=1;" parent="1" source="j0N_L9nw0FPW9un53sPI-15" target="j0N_L9nw0FPW9un53sPI-24" edge="1">
          <mxGeometry relative="1" as="geometry" />
        </mxCell>
        <mxCell id="j0N_L9nw0FPW9un53sPI-51" style="edgeStyle=orthogonalEdgeStyle;rounded=0;orthogonalLoop=1;jettySize=auto;html=1;entryX=0;entryY=0.5;entryDx=0;entryDy=0;" parent="1" source="j0N_L9nw0FPW9un53sPI-15" target="j0N_L9nw0FPW9un53sPI-3" edge="1">
          <mxGeometry relative="1" as="geometry">
            <mxPoint x="720" y="410" as="targetPoint" />
            <Array as="points">
              <mxPoint x="170" y="380" />
              <mxPoint x="170" y="70" />
            </Array>
          </mxGeometry>
        </mxCell>
        <mxCell id="j0N_L9nw0FPW9un53sPI-54" value="Отмена" style="edgeLabel;html=1;align=center;verticalAlign=middle;resizable=0;points=[];" parent="j0N_L9nw0FPW9un53sPI-51" vertex="1" connectable="0">
          <mxGeometry x="-0.0123" y="1" relative="1" as="geometry">
            <mxPoint x="51" y="150" as="offset" />
          </mxGeometry>
        </mxCell>
        <mxCell id="j0N_L9nw0FPW9un53sPI-15" value="Ввод рабочих часов согласно выбранного типа" style="whiteSpace=wrap;html=1;rounded=0;" parent="1" vertex="1">
          <mxGeometry x="360" y="350" width="120" height="60" as="geometry" />
        </mxCell>
        <mxCell id="j0N_L9nw0FPW9un53sPI-25" style="edgeStyle=orthogonalEdgeStyle;rounded=0;orthogonalLoop=1;jettySize=auto;html=1;entryX=1;entryY=0.75;entryDx=0;entryDy=0;exitX=1;exitY=0.5;exitDx=0;exitDy=0;" parent="1" source="j0N_L9nw0FPW9un53sPI-24" target="j0N_L9nw0FPW9un53sPI-15" edge="1">
          <mxGeometry relative="1" as="geometry">
            <Array as="points">
              <mxPoint x="540" y="490" />
              <mxPoint x="540" y="395" />
            </Array>
          </mxGeometry>
        </mxCell>
        <mxCell id="j0N_L9nw0FPW9un53sPI-30" value="не валидные - исправить" style="edgeLabel;html=1;align=center;verticalAlign=middle;resizable=0;points=[];" parent="j0N_L9nw0FPW9un53sPI-25" vertex="1" connectable="0">
          <mxGeometry x="-0.1011" y="-2" relative="1" as="geometry">
            <mxPoint x="-12" y="-8" as="offset" />
          </mxGeometry>
        </mxCell>
        <mxCell id="ObLxA8yjX_9YTi1d-CIK-3" value="" style="edgeStyle=orthogonalEdgeStyle;rounded=0;orthogonalLoop=1;jettySize=auto;html=1;" edge="1" parent="1" source="j0N_L9nw0FPW9un53sPI-24" target="ObLxA8yjX_9YTi1d-CIK-2">
          <mxGeometry relative="1" as="geometry" />
        </mxCell>
        <mxCell id="j0N_L9nw0FPW9un53sPI-24" value="&lt;span&gt;Валидация на сервере&lt;/span&gt;" style="rhombus;whiteSpace=wrap;html=1;rounded=0;" parent="1" vertex="1">
          <mxGeometry x="362.5" y="450" width="115" height="80" as="geometry" />
        </mxCell>
        <mxCell id="j0N_L9nw0FPW9un53sPI-35" style="edgeStyle=orthogonalEdgeStyle;rounded=0;orthogonalLoop=1;jettySize=auto;html=1;entryX=1;entryY=0.5;entryDx=0;entryDy=0;" parent="1" source="j0N_L9nw0FPW9un53sPI-33" target="j0N_L9nw0FPW9un53sPI-4" edge="1">
          <mxGeometry relative="1" as="geometry">
            <Array as="points">
              <mxPoint x="620" y="780" />
              <mxPoint x="620" y="280" />
            </Array>
          </mxGeometry>
        </mxCell>
        <mxCell id="j0N_L9nw0FPW9un53sPI-37" value="Добавить&amp;nbsp;" style="edgeLabel;html=1;align=center;verticalAlign=middle;resizable=0;points=[];" parent="j0N_L9nw0FPW9un53sPI-35" vertex="1" connectable="0">
          <mxGeometry x="-0.7419" y="1" relative="1" as="geometry">
            <mxPoint x="-28" y="-9" as="offset" />
          </mxGeometry>
        </mxCell>
        <mxCell id="j0N_L9nw0FPW9un53sPI-39" value="" style="edgeStyle=orthogonalEdgeStyle;rounded=0;orthogonalLoop=1;jettySize=auto;html=1;" parent="1" source="j0N_L9nw0FPW9un53sPI-33" target="j0N_L9nw0FPW9un53sPI-38" edge="1">
          <mxGeometry relative="1" as="geometry">
            <Array as="points">
              <mxPoint x="422" y="830" />
              <mxPoint x="422" y="830" />
            </Array>
          </mxGeometry>
        </mxCell>
        <mxCell id="j0N_L9nw0FPW9un53sPI-40" value="Нет" style="edgeLabel;html=1;align=center;verticalAlign=middle;resizable=0;points=[];" parent="j0N_L9nw0FPW9un53sPI-39" vertex="1" connectable="0">
          <mxGeometry x="0.2548" y="-1" relative="1" as="geometry">
            <mxPoint x="1" y="-11" as="offset" />
          </mxGeometry>
        </mxCell>
        <mxCell id="j0N_L9nw0FPW9un53sPI-33" value="&lt;font style=&quot;font-size: 10px&quot;&gt;Добавить в отчет новую категорию?&lt;/font&gt;" style="rhombus;whiteSpace=wrap;html=1;rounded=0;" parent="1" vertex="1">
          <mxGeometry x="367" y="740" width="110" height="80" as="geometry" />
        </mxCell>
        <mxCell id="j0N_L9nw0FPW9un53sPI-42" value="" style="edgeStyle=orthogonalEdgeStyle;rounded=0;orthogonalLoop=1;jettySize=auto;html=1;" parent="1" source="j0N_L9nw0FPW9un53sPI-38" target="j0N_L9nw0FPW9un53sPI-41" edge="1">
          <mxGeometry relative="1" as="geometry" />
        </mxCell>
        <mxCell id="j0N_L9nw0FPW9un53sPI-38" value="Итоговый отчет с введенными данными" style="whiteSpace=wrap;html=1;rounded=0;" parent="1" vertex="1">
          <mxGeometry x="362" y="870" width="120" height="60" as="geometry" />
        </mxCell>
        <mxCell id="j0N_L9nw0FPW9un53sPI-44" value="" style="edgeStyle=orthogonalEdgeStyle;rounded=0;orthogonalLoop=1;jettySize=auto;html=1;" parent="1" source="j0N_L9nw0FPW9un53sPI-41" target="j0N_L9nw0FPW9un53sPI-43" edge="1">
          <mxGeometry relative="1" as="geometry" />
        </mxCell>
        <mxCell id="j0N_L9nw0FPW9un53sPI-45" value="Подтверждение&amp;nbsp;" style="edgeLabel;html=1;align=center;verticalAlign=middle;resizable=0;points=[];" parent="j0N_L9nw0FPW9un53sPI-44" vertex="1" connectable="0">
          <mxGeometry x="0.2081" relative="1" as="geometry">
            <mxPoint y="-10" as="offset" />
          </mxGeometry>
        </mxCell>
        <mxCell id="j0N_L9nw0FPW9un53sPI-47" value="" style="edgeStyle=orthogonalEdgeStyle;rounded=0;orthogonalLoop=1;jettySize=auto;html=1;entryX=0;entryY=0.5;entryDx=0;entryDy=0;" parent="1" source="j0N_L9nw0FPW9un53sPI-41" target="j0N_L9nw0FPW9un53sPI-3" edge="1">
          <mxGeometry relative="1" as="geometry">
            <Array as="points">
              <mxPoint x="170" y="1010" />
              <mxPoint x="170" y="70" />
            </Array>
          </mxGeometry>
        </mxCell>
        <mxCell id="j0N_L9nw0FPW9un53sPI-48" value="Отмена" style="edgeLabel;html=1;align=center;verticalAlign=middle;resizable=0;points=[];" parent="j0N_L9nw0FPW9un53sPI-47" vertex="1" connectable="0">
          <mxGeometry x="-0.3048" relative="1" as="geometry">
            <mxPoint x="90" y="244" as="offset" />
          </mxGeometry>
        </mxCell>
        <mxCell id="j0N_L9nw0FPW9un53sPI-41" value="&lt;font style=&quot;font-size: 10px&quot;&gt;Подтвердить парвильность&lt;/font&gt;" style="rhombus;whiteSpace=wrap;html=1;rounded=0;" parent="1" vertex="1">
          <mxGeometry x="367" y="970" width="110" height="80" as="geometry" />
        </mxCell>
        <mxCell id="j0N_L9nw0FPW9un53sPI-43" value="Сообщение &quot;Отчет успешно добавлен&quot; - Конец диалога" style="whiteSpace=wrap;html=1;rounded=0;" parent="1" vertex="1">
          <mxGeometry x="362" y="1100" width="120" height="60" as="geometry" />
        </mxCell>
        <mxCell id="j0N_L9nw0FPW9un53sPI-46" value="Возврат в главное меню" style="whiteSpace=wrap;html=1;rounded=0;" parent="1" vertex="1">
          <mxGeometry x="580" y="40" width="120" height="60" as="geometry" />
        </mxCell>
        <mxCell id="0l5PlyuZuqdIWwA-NOsw-1" value="&lt;b&gt;&lt;font style=&quot;font-size: 19px&quot;&gt;Create report dialog&lt;/font&gt;&lt;/b&gt;" style="text;html=1;align=center;verticalAlign=middle;resizable=0;points=[];autosize=1;strokeColor=none;fillColor=none;" parent="1" vertex="1">
          <mxGeometry x="90" y="20" width="200" height="20" as="geometry" />
        </mxCell>
        <mxCell id="ObLxA8yjX_9YTi1d-CIK-4" value="" style="edgeStyle=orthogonalEdgeStyle;rounded=0;orthogonalLoop=1;jettySize=auto;html=1;" edge="1" parent="1" source="ObLxA8yjX_9YTi1d-CIK-2" target="j0N_L9nw0FPW9un53sPI-33">
          <mxGeometry relative="1" as="geometry" />
        </mxCell>
        <mxCell id="ObLxA8yjX_9YTi1d-CIK-2" value="Добавить примечание (+кнопка пропустить)" style="rounded=0;whiteSpace=wrap;html=1;" vertex="1" parent="1">
          <mxGeometry x="362.5" y="600" width="120" height="60" as="geometry" />
        </mxCell>
      </root>
    </mxGraphModel>
  </diagram>
</mxfile>
